<svg id="Livello_1" data-name="Livello 1" xmlns="http://www.w3.org/2000/svg" width="200" height="150" viewBox="0 0 200 150"><defs><style>.cls-1{fill:#00d9c5;}</style></defs><title>NEWLOGO</title><path class="cls-1" d="M16.91,125.4c0,2.7-.52,3.59,2.16,4.1,1.77.33,2.45,0,2.45,2.55,0,2.16-2.29,2.18-3.85,2.18H12.16c-3.78,0-5-.54-5-4.63V110.09H5.92c-1.74,0-3.6,0-3.6-2.34,0-1.56,1.08-1.92,2.4-2.16,1.62-.24,3.06-.42,4-1.86a18.62,18.62,0,0,0,1.68-5.47c.42-2.22.9-3,3.31-3,2.76,0,3,.36,3,2.88v7.21h3.54c1.8,0,3.72.06,3.72,2.4,0,2.1-1.92,2.34-3.6,2.34H16.91Z"/><path class="cls-1" d="M31.2,131.41a14.55,14.55,0,0,1-5.34-11.29A15,15,0,0,1,31,109.19a18.4,18.4,0,0,1,12.43-4.32c8.46,0,16.63,5.94,16.63,14.95,0,9.42-8.47,15.31-17.17,15.31A18.4,18.4,0,0,1,31.2,131.41Zm18.49-12c0-4.32-1.32-10.27-6.66-10.27s-6.85,6.13-6.85,10.57,1,11.23,6.73,11.23C48.91,131,49.69,124.14,49.69,119.46Z"/><path class="cls-1" d="M106.07,105.35c1.32,0,3.72-.3,3.72,1.68a2.53,2.53,0,0,1-.84,1.74,5.31,5.31,0,0,0-1.68,3.06l-5,15.43c-.84,2-2.22,5-3.72,6.55a5.1,5.1,0,0,1-3.9,1.32c-2.16,0-3.3-.3-4.62-2-2.1-2.83-3.43-6.49-4.69-9.85a42.35,42.35,0,0,1-4.74,9.61,4.7,4.7,0,0,1-4.5,2.28c-3.9,0-4.74-1.62-6.43-5.11a70.44,70.44,0,0,1-5.34-15.49l-.66-3a4.73,4.73,0,0,0-.78-2.1c-.66-.54-1.5-1.2-1.5-2.22,0-1.68,1.5-1.86,2.82-1.86h8.65c1.5-.06,3.06.12,3.06,1.92,0,2-2.1,1.38-2.1,3.18,0,2.16,1.26,6.91,1.86,9.19a32,32,0,0,0,3.36,8.28,30.86,30.86,0,0,0,3.6-14.59c0-1.86.06-3.24-1.44-4.44A2.43,2.43,0,0,1,80.13,107c0-1.5,1.62-1.68,2.76-1.68h7.93c1.44,0,3.24,0,3.24,1.86s-2,1.32-2,3.18,1.2,6.31,1.74,8.17l3.6,9.36c2-3.84,5-12.06,5-16.27,0-3.3-2.7-2.22-2.7-4.68,0-1.8,2.1-1.62,3.31-1.62Z"/><path class="cls-1" d="M129.48,130.33c3.24,0,5.7-1.45,8.11-3.61.84-.72,1.26-1.32,2.46-1.32a1.76,1.76,0,0,1,1.74,1.62c0,2.16-3.24,4.69-4.86,5.59a18.46,18.46,0,0,1-10,2.52c-8.17,0-16.15-5.35-16.15-14.17,0-10.09,8.7-16.09,18.07-16.09,5.34,0,12.31,2.46,12.31,8.76,0,4.45-4.57,7-8.23,8.17s-7.5,1.5-11.22,2.1A7.85,7.85,0,0,0,129.48,130.33ZM131.82,113c0-2.28-1.2-3.9-3.6-3.9-5,0-7.32,6.61-7,10.81C125.16,119.58,131.82,118,131.82,113Z"/><path class="cls-1" d="M158.36,126.12a12.09,12.09,0,0,0,.3,3.3,2.67,2.67,0,0,0,1.32,1.09c.78.42,1.44.84,1.44,1.8,0,1.92-1.8,1.92-3.24,1.92h-9.43c-1.44,0-3.24,0-3.24-1.92,0-1,.66-1.38,1.44-1.8a2.67,2.67,0,0,0,1.32-1.09,12.09,12.09,0,0,0,.3-3.3v-11c0,.84,0-.42-.36-1.63s-.9-1.62-2.16-2.22c-.9-.42-1.62-.9-1.62-2,0-1.5,1.8-2.22,2.94-2.7s5-1.74,6.31-1.74c2.7,0,3.12,4.26,3.42,6.24,1.44-2.94,4.38-6.24,7.86-6.24a4.34,4.34,0,0,1,4.51,4.44c0,1.86-1.09,4.14-3.19,4.14-1.56,0-2.76-.78-4-.78s-2.22,1.14-2.76,2.23c-1,1.86-1.14,4.38-1.14,6.48Z"/><path class="cls-1" d="M188.92,116.28c4.56,1.2,8.76,2.88,8.76,8.46a9.69,9.69,0,0,1-4.8,8,20.22,20.22,0,0,1-17.23.78c-2-.9-4.75-2.7-4.75-5.17a2.68,2.68,0,0,1,2.53-2.76c1.38,0,1.92.78,2.76,1.74,1.92,2.1,3.18,3.49,6.18,3.49,2,0,5.11-1,5.11-3.55,0-6.12-15.61-1.44-15.61-12.24,0-7.45,7.5-10.21,13.74-10.21,2.77,0,7.15.72,9.49,2.28,1.26.78,1.26,2.7,1.26,4s-.06,2.94-1.8,2.94c-2.7,0-2.46-5.16-8.29-5.16-2,0-4.56,1-4.56,3.36,0,2.17,2.7,2.83,4.38,3.25Z"/><path class="cls-1" d="M89.5,20.39h.25a8.31,8.31,0,0,1,8.31,8.31v3a0,0,0,0,1,0,0H89.5a0,0,0,0,1,0,0V20.39A0,0,0,0,1,89.5,20.39Z"/><path class="cls-1" d="M116.52,31.75h11.35V14.87l-5.89,1a6.5,6.5,0,0,0-5.46,6.42Z"/><path class="cls-1" d="M111.32,20.39h.25a0,0,0,0,1,0,0V31.75a0,0,0,0,1,0,0H103a0,0,0,0,1,0,0v-3A8.31,8.31,0,0,1,111.32,20.39Z"/><path class="cls-1" d="M84.51,31.75H73.16V14.87l5.89,1a6.5,6.5,0,0,1,5.46,6.42Z"/><rect class="cls-1" x="83.84" y="84.41" width="10.4" height="4.8"/><rect class="cls-1" x="106.91" y="84.41" width="10.53" height="4.8"/><polygon class="cls-1" points="122.67 84.41 118.39 84.41 118.39 89.21 122.81 89.21 122.67 84.41"/><polygon class="cls-1" points="82.89 84.41 78.36 84.41 78.22 89.21 82.89 89.21 82.89 84.41"/><rect class="cls-1" x="95.18" y="84.41" width="10.78" height="4.8"/><path class="cls-1" d="M79.55,43.47,78.4,82.89h44.23l-1.17-39.42Zm23.51,26.15H98a1.89,1.89,0,0,1-1.89-1.89V55.6c0-2.41,2-6.89,4.36-6.89h.15c2.41,0,4.36,4.48,4.36,6.89V67.73A1.89,1.89,0,0,1,103.06,69.62Z"/><polygon class="cls-1" points="92.47 42.24 92.47 33.28 73.16 33.28 79.59 42.24 92.47 42.24"/><polygon class="cls-1" points="78.17 90.73 78.07 94.19 122.96 94.19 122.86 90.73 78.17 90.73"/><polygon class="cls-1" points="108.6 33.28 108.6 42.24 121.43 42.24 127.87 33.28 108.6 33.28"/><rect class="cls-1" x="93.78" y="33.28" width="13.51" height="8.96"/></svg>