<svg id="Livello_1" data-name="Livello 1" xmlns="http://www.w3.org/2000/svg" width="32" height="32" viewBox="0 0 32 32"><defs><style>.cls-1{fill:#00d9c5;}</style></defs><title>NEWICON</title><path class="cls-1" d="M11.84,3.09h1.25a2,2,0,0,1,2,2V7.39a0,0,0,0,1,0,0H11.84a0,0,0,0,1,0,0V3.09A0,0,0,0,1,11.84,3.09Z"/><path class="cls-1" d="M22.05,7.39h4.29V1l-2.23.36a2.45,2.45,0,0,0-2.06,2.42Z"/><path class="cls-1" d="M18.93,3.09h1.25a0,0,0,0,1,0,0V7.39a0,0,0,0,1,0,0H16.94a0,0,0,0,1,0,0V5.08A2,2,0,0,1,18.93,3.09Z"/><path class="cls-1" d="M10,7.39H5.66V1l2.23.36A2.45,2.45,0,0,1,10,3.79Z"/><rect class="cls-1" x="9.7" y="27.29" width="3.93" height="1.81"/><rect class="cls-1" x="18.42" y="27.29" width="3.98" height="1.81"/><polygon class="cls-1" points="24.38 27.3 22.76 27.3 22.76 29.11 24.43 29.11 24.38 27.3"/><polygon class="cls-1" points="9.34 27.3 7.62 27.3 7.57 29.11 9.34 29.11 9.34 27.3"/><rect class="cls-1" x="13.98" y="27.29" width="4.08" height="1.81"/><path class="cls-1" d="M8.08,11.82l-.44,14.9H24.36l-.44-14.9ZM17,21.7H15a.71.71,0,0,1-.72-.71V16.4c0-.91.74-2.6,1.65-2.6H16c.91,0,1.65,1.69,1.65,2.6V21A.71.71,0,0,1,17,21.7Z"/><polygon class="cls-1" points="12.96 11.35 12.96 7.96 5.66 7.96 8.09 11.35 12.96 11.35"/><polygon class="cls-1" points="7.55 29.68 7.51 30.99 24.48 30.99 24.45 29.68 7.55 29.68"/><polygon class="cls-1" points="19.06 7.96 19.06 11.35 23.91 11.35 26.34 7.96 19.06 7.96"/><rect class="cls-1" x="13.46" y="7.96" width="5.11" height="3.39"/></svg>