<?xml version="1.0" standalone="no"?>
<!DOCTYPE svg PUBLIC "-//W3C//DTD SVG 20010904//EN"
 "http://www.w3.org/TR/2001/REC-SVG-20010904/DTD/svg10.dtd">
<svg version="1.0" xmlns="http://www.w3.org/2000/svg"
 width="545.000000pt" height="545.000000pt" viewBox="0 0 545.000000 545.000000"
 preserveAspectRatio="xMidYMid meet">
<metadata>
Created by potrace 1.11, written by Peter Selinger 2001-2013
</metadata>
<g transform="translate(0.000000,545.000000) scale(0.100000,-0.100000)"
fill="#000000" stroke="none">
<path d="M2636 5138 c-3 -40 -8 -161 -11 -268 -20 -660 -91 -1465 -183 -2080
l-17 -115 -86 1 c-47 1 -155 12 -239 25 -229 34 -211 37 -227 -45 -7 -39 -11
-71 -10 -72 14 -10 430 -64 494 -64 42 0 42 0 37 -33 -125 -703 -307 -1362
-515 -1869 -39 -95 -71 -179 -72 -186 -2 -14 130 -75 148 -68 13 5 131 297
205 507 144 408 283 941 375 1440 19 105 35 191 35 192 0 1 72 2 160 2 l159 1
12 -56 c148 -730 372 -1401 653 -1957 81 -160 69 -152 152 -107 38 21 70 38
72 40 2 1 -29 66 -69 145 -254 507 -458 1093 -592 1699 -25 113 -47 214 -49
225 -3 19 7 21 147 37 210 23 365 49 365 61 0 5 -5 39 -12 74 l-12 65 -39 -6
c-166 -27 -309 -46 -389 -52 l-95 -6 -21 123 c-106 605 -178 1397 -198 2162
l-7 257 -83 0 -82 0 -6 -72z m130 -1858 c14 -112 41 -296 59 -409 19 -113 32
-208 29 -210 -8 -8 -241 -7 -249 1 -4 4 4 89 19 190 31 223 61 464 76 618 16
163 22 180 32 90 5 -41 20 -167 34 -280z"/>
</g>
</svg>
